<svg width="15" height="27" viewBox="0 0 15 27" fill="none" xmlns="http://www.w3.org/2000/svg">
<g clip-path="url(#clip0_1_27)">
<path d="M14.0625 13C14.0625 13.8477 13.9167 14.6497 13.625 15.4062C13.3333 16.1628 12.93 16.8372 12.415 17.4297C11.9001 18.0221 11.2962 18.5189 10.6035 18.9199C9.90169 19.3118 9.14974 19.5716 8.34766 19.6992V14.9551H9.91992L10.2207 13H8.34766V11.7285C8.34766 11.4551 8.42513 11.209 8.58008 10.9902C8.73503 10.7715 9.02214 10.6621 9.44141 10.6621H10.3027V8.99414C10.3027 8.99414 10.1432 8.97363 9.82422 8.93262C9.50521 8.8916 9.15885 8.87109 8.78516 8.87109C8.01042 8.87109 7.38835 9.09668 6.91895 9.54785C6.44954 9.99902 6.21484 10.653 6.21484 11.5098V13H4.49219V14.9551H6.21484V19.6992C5.41276 19.5716 4.66081 19.3118 3.95898 18.9199C3.26628 18.5189 2.66243 18.0221 2.14746 17.4297C1.63249 16.8372 1.22917 16.1628 0.9375 15.4062C0.645833 14.6497 0.5 13.8477 0.5 13C0.5 12.0612 0.677734 11.1816 1.0332 10.3613C1.38867 9.54102 1.87402 8.82324 2.48926 8.20801C3.10449 7.59277 3.82227 7.10742 4.64258 6.75195C5.46289 6.39648 6.34245 6.21875 7.28125 6.21875C8.22005 6.21875 9.09961 6.39648 9.91992 6.75195C10.7402 7.10742 11.458 7.59277 12.0732 8.20801C12.6885 8.82324 13.1738 9.54102 13.5293 10.3613C13.8848 11.1816 14.0625 12.0612 14.0625 13Z" fill="white"/>
</g>
<defs>
<clipPath id="clip0_1_27">
<rect width="14" height="14" fill="white" transform="matrix(1 0 0 -1 0.5 20)"/>
</clipPath>
</defs>
</svg>
