<svg width="14" height="27" viewBox="0 0 14 27" fill="none" xmlns="http://www.w3.org/2000/svg">
<path d="M6.125 9.85547C6.5625 9.85547 6.97266 9.9375 7.35547 10.1016C7.73828 10.2656 8.07096 10.4889 8.35352 10.7715C8.63607 11.054 8.85938 11.3867 9.02344 11.7695C9.1875 12.1523 9.26953 12.5625 9.26953 13C9.26953 13.4284 9.1875 13.834 9.02344 14.2168C8.85938 14.5996 8.63607 14.9346 8.35352 15.2217C8.07096 15.5088 7.73828 15.7344 7.35547 15.8984C6.97266 16.0625 6.5625 16.1445 6.125 16.1445C5.69661 16.1445 5.29102 16.0625 4.9082 15.8984C4.52539 15.7344 4.19043 15.5088 3.90332 15.2217C3.61621 14.9346 3.39062 14.5996 3.22656 14.2168C3.0625 13.834 2.98047 13.4284 2.98047 13C2.98047 12.5625 3.0625 12.1523 3.22656 11.7695C3.39062 11.3867 3.61621 11.054 3.90332 10.7715C4.19043 10.4889 4.52539 10.2656 4.9082 10.1016C5.29102 9.9375 5.69661 9.85547 6.125 9.85547ZM6.125 15.0371C6.6901 15.0371 7.17318 14.8389 7.57422 14.4424C7.97526 14.0459 8.17578 13.5651 8.17578 13C8.17578 12.4349 7.97526 11.9518 7.57422 11.5508C7.17318 11.1497 6.6901 10.9492 6.125 10.9492C5.5599 10.9492 5.0791 11.1497 4.68262 11.5508C4.28613 11.9518 4.08789 12.4349 4.08789 13C4.08789 13.5651 4.28841 14.0459 4.68945 14.4424C5.09049 14.8389 5.56901 15.0371 6.125 15.0371ZM10.1309 9.73242C10.1309 9.93294 10.0602 10.1038 9.91895 10.2451C9.77767 10.3864 9.60221 10.457 9.39258 10.457C9.19206 10.457 9.02116 10.3864 8.87988 10.2451C8.73861 10.1038 8.66797 9.93294 8.66797 9.73242C8.66797 9.52279 8.73861 9.34733 8.87988 9.20605C9.02116 9.06478 9.19206 8.99414 9.39258 8.99414C9.60221 8.99414 9.77767 9.06478 9.91895 9.20605C10.0602 9.34733 10.1309 9.52279 10.1309 9.73242ZM12.209 10.4707C12.2272 10.7259 12.2409 11.0859 12.25 11.5508C12.25 12.0065 12.25 12.4873 12.25 12.9932C12.25 13.499 12.25 13.9844 12.25 14.4492C12.2409 14.9141 12.2272 15.2741 12.209 15.5293C12.1908 16.0124 12.111 16.4704 11.9697 16.9033C11.8285 17.3363 11.5801 17.7305 11.2246 18.0859C10.8691 18.4505 10.4749 18.7012 10.042 18.8379C9.60905 18.9746 9.14648 19.0566 8.6543 19.084C8.39909 19.0931 8.03906 19.1022 7.57422 19.1113C7.11849 19.1204 6.6377 19.125 6.13184 19.125C5.62598 19.125 5.14062 19.1204 4.67578 19.1113C4.21094 19.1022 3.85091 19.0931 3.5957 19.084C3.10352 19.0566 2.64323 18.9746 2.21484 18.8379C1.78646 18.7012 1.38997 18.4505 1.02539 18.0859C0.669922 17.7305 0.423828 17.3363 0.287109 16.9033C0.150391 16.4704 0.0683594 16.0124 0.0410156 15.5293C0.0227865 15.2741 0.0136719 14.9141 0.0136719 14.4492C0.00455729 13.9844 0 13.499 0 12.9932C0 12.4873 0.00455729 12.002 0.0136719 11.5371C0.0136719 11.0814 0.0227865 10.7259 0.0410156 10.4707C0.0683594 9.97852 0.150391 9.51595 0.287109 9.08301C0.423828 8.65007 0.669922 8.25586 1.02539 7.90039C1.38997 7.54492 1.78874 7.29655 2.22168 7.15527C2.65462 7.014 3.11263 6.93425 3.5957 6.91602C3.85091 6.89779 4.21094 6.88411 4.67578 6.875C5.14062 6.875 5.62598 6.875 6.13184 6.875C6.6377 6.875 7.11849 6.875 7.57422 6.875C8.03906 6.88411 8.39909 6.89779 8.6543 6.91602C9.14648 6.94336 9.60905 7.02539 10.042 7.16211C10.4749 7.29883 10.8691 7.54492 11.2246 7.90039C11.5801 8.26497 11.8285 8.66146 11.9697 9.08984C12.111 9.51823 12.1908 9.97852 12.209 10.4707ZM10.9102 16.6094C10.9831 16.4089 11.0378 16.1491 11.0742 15.8301C11.1107 15.5111 11.1357 15.1784 11.1494 14.832C11.1631 14.4857 11.1654 14.1484 11.1562 13.8203C11.1562 13.4922 11.1562 13.2188 11.1562 13C11.1562 12.7721 11.1562 12.4941 11.1562 12.166C11.1654 11.8379 11.1631 11.5007 11.1494 11.1543C11.1357 10.8079 11.1107 10.4798 11.0742 10.1699C11.0378 9.85091 10.9831 9.59115 10.9102 9.39062C10.8008 9.11719 10.6458 8.88021 10.4453 8.67969C10.2448 8.47917 10.0078 8.32422 9.73438 8.21484C9.53385 8.14193 9.27409 8.08724 8.95508 8.05078C8.64518 8.01432 8.31706 7.98926 7.9707 7.97559C7.62435 7.96191 7.28711 7.95964 6.95898 7.96875C6.63086 7.96875 6.35286 7.96875 6.125 7.96875C5.90625 7.96875 5.63281 7.96875 5.30469 7.96875C4.97656 7.95964 4.63932 7.96191 4.29297 7.97559C3.94661 7.98926 3.61393 8.01432 3.29492 8.05078C2.97591 8.08724 2.71615 8.14193 2.51562 8.21484C2.24219 8.32422 2.00521 8.47917 1.80469 8.67969C1.60417 8.88021 1.45378 9.11719 1.35352 9.39062C1.27148 9.59115 1.21224 9.85091 1.17578 10.1699C1.13932 10.4798 1.11654 10.8079 1.10742 11.1543C1.09831 11.5007 1.09375 11.8379 1.09375 12.166C1.10286 12.4941 1.10742 12.7721 1.10742 13C1.10742 13.2188 1.10286 13.4922 1.09375 13.8203C1.09375 14.1484 1.09831 14.4857 1.10742 14.832C1.11654 15.1784 1.13932 15.5111 1.17578 15.8301C1.21224 16.1491 1.27148 16.4089 1.35352 16.6094C1.46289 16.8828 1.61784 17.1175 1.81836 17.3135C2.01888 17.5094 2.2513 17.6621 2.51562 17.7715C2.71615 17.8535 2.97591 17.9128 3.29492 17.9492C3.61393 17.9857 3.94661 18.0085 4.29297 18.0176C4.63932 18.0267 4.97656 18.0312 5.30469 18.0312C5.63281 18.0221 5.90625 18.0176 6.125 18.0176C6.35286 18.0176 6.63086 18.0221 6.95898 18.0312C7.28711 18.0312 7.62435 18.0267 7.9707 18.0176C8.31706 18.0085 8.64518 17.9857 8.95508 17.9492C9.27409 17.9128 9.53385 17.8535 9.73438 17.7715C10.0078 17.6621 10.2448 17.5072 10.4453 17.3066C10.6458 17.1061 10.8008 16.8737 10.9102 16.6094Z" fill="white"/>
</svg>
