<svg width="15" height="12" viewBox="0 0 15 12" fill="none" xmlns="http://www.w3.org/2000/svg">
<path d="M14.6202 4.22266C14.6658 4.17708 14.7205 4.17025 14.7843 4.20215C14.8481 4.23405 14.88 4.2819 14.88 4.3457V9.9375C14.88 10.3021 14.7524 10.612 14.4972 10.8672C14.242 11.1224 13.9321 11.25 13.5675 11.25H2.1925C1.82792 11.25 1.51803 11.1224 1.26282 10.8672C1.00761 10.612 0.880005 10.3021 0.880005 9.9375V4.3457C0.880005 4.2819 0.909627 4.23405 0.968872 4.20215C1.02812 4.17025 1.08508 4.17708 1.13977 4.22266C1.44967 4.45964 1.88261 4.7832 2.4386 5.19336C2.99459 5.60352 3.96985 6.31445 5.36438 7.32617C5.64693 7.53581 6.01607 7.80697 6.4718 8.13965C6.92753 8.47233 7.39693 8.63411 7.88 8.625C8.37219 8.63411 8.84615 8.47005 9.30188 8.13281C9.75761 7.79557 10.1267 7.52669 10.4093 7.32617C11.8038 6.31445 12.7768 5.60352 13.3282 5.19336C13.8797 4.7832 14.3103 4.45964 14.6202 4.22266ZM7.88 7.75C7.56099 7.75911 7.20325 7.61328 6.80676 7.3125C6.41028 7.01172 6.0981 6.7793 5.87024 6.61523C4.05644 5.30273 2.91711 4.47103 2.45227 4.12012C1.98743 3.76921 1.54537 3.42969 1.1261 3.10156C1.05318 3.03776 0.993937 2.96029 0.948364 2.86914C0.902791 2.778 0.880005 2.68229 0.880005 2.58203V2.0625C0.880005 1.69792 1.00761 1.38802 1.26282 1.13281C1.51803 0.877604 1.82792 0.75 2.1925 0.75H13.5675C13.9321 0.75 14.242 0.877604 14.4972 1.13281C14.7524 1.38802 14.88 1.69792 14.88 2.0625V2.58203C14.88 2.68229 14.8572 2.778 14.8116 2.86914C14.7661 2.96029 14.7068 3.03776 14.6339 3.10156C14.2146 3.42969 13.7726 3.76921 13.3077 4.12012C12.8429 4.47103 11.7036 5.30273 9.88977 6.61523C9.66191 6.7793 9.34973 7.01172 8.95325 7.3125C8.55676 7.61328 8.19902 7.75911 7.88 7.75Z" fill="white"/>
</svg>
