<svg width="11" height="27" viewBox="0 0 11 27" fill="none" xmlns="http://www.w3.org/2000/svg">
<g clip-path="url(#clip0_1_30)">
<path d="M6.07812 6.17773C6.72526 6.17773 7.34505 6.28255 7.9375 6.49219C8.52995 6.71094 9.05176 7.01628 9.50293 7.4082C9.9541 7.80013 10.3164 8.26953 10.5898 8.81641C10.8633 9.3724 11 9.98763 11 10.6621C11 11.3001 10.918 11.9382 10.7539 12.5762C10.5898 13.2233 10.3346 13.8021 9.98828 14.3125C9.64193 14.8229 9.20443 15.2422 8.67578 15.5703C8.14714 15.8893 7.51823 16.0488 6.78906 16.0488C6.44271 16.0488 6.08268 15.9645 5.70898 15.7959C5.33529 15.6273 5.06641 15.3835 4.90234 15.0645C4.58333 16.2949 4.34863 17.154 4.19824 17.6416C4.04785 18.1292 3.63086 18.8424 2.94727 19.7812C2.87435 19.8086 2.83561 19.8223 2.83105 19.8223C2.8265 19.8223 2.80143 19.7949 2.75586 19.7402C2.72852 19.485 2.70117 19.2298 2.67383 18.9746C2.64648 18.7194 2.63281 18.4642 2.63281 18.209C2.63281 17.7897 2.67383 17.3294 2.75586 16.8281C2.83789 16.3359 2.94043 15.8346 3.06348 15.3242C3.18652 14.8138 3.31185 14.3171 3.43945 13.834C3.57617 13.3418 3.6901 12.8906 3.78125 12.4805C3.68099 12.2708 3.61263 12.0452 3.57617 11.8037C3.53971 11.5622 3.52148 11.3275 3.52148 11.0996C3.52148 10.5527 3.65365 10.1243 3.91797 9.81445C4.18229 9.50456 4.47624 9.31543 4.7998 9.24707C5.12337 9.17871 5.41732 9.24023 5.68164 9.43164C5.95508 9.62305 6.0918 9.94206 6.0918 10.3887C6.0918 10.9264 5.97103 11.4482 5.72949 11.9541C5.48796 12.46 5.36719 12.9727 5.36719 13.4922C5.36719 13.8477 5.49251 14.137 5.74316 14.3604C5.99381 14.5837 6.28776 14.6953 6.625 14.6953C7.09896 14.6953 7.49544 14.5449 7.81445 14.2441C8.12435 13.9434 8.375 13.5788 8.56641 13.1504C8.75781 12.722 8.89453 12.2663 8.97656 11.7832C9.05859 11.3001 9.09961 10.8763 9.09961 10.5117C9.09961 10.0286 9.01758 9.60026 8.85352 9.22656C8.68945 8.85286 8.46387 8.53841 8.17676 8.2832C7.88965 8.028 7.54557 7.83659 7.14453 7.70898C6.7526 7.58138 6.32422 7.51758 5.85938 7.51758C5.3125 7.51758 4.80664 7.60872 4.3418 7.79102C3.87695 7.97331 3.47135 8.23079 3.125 8.56348C2.77865 8.89616 2.50977 9.29492 2.31836 9.75977C2.11784 10.2155 2.01758 10.7214 2.01758 11.2773C2.01758 11.806 2.12467 12.2139 2.33887 12.501C2.55306 12.7881 2.66016 12.9954 2.66016 13.123C2.66016 13.2324 2.6237 13.4215 2.55078 13.6904C2.47786 13.9593 2.37305 14.0938 2.23633 14.0938C1.9082 14.0938 1.53678 13.8317 1.12207 13.3076C0.707357 12.7835 0.5 12.0384 0.5 11.0723C0.5 10.3158 0.659505 9.63672 0.978516 9.03516C1.29753 8.42448 1.7168 7.9095 2.23633 7.49023C2.75586 7.07096 3.35286 6.7474 4.02734 6.51953C4.69271 6.29167 5.3763 6.17773 6.07812 6.17773Z" fill="white"/>
</g>
<defs>
<clipPath id="clip0_1_30">
<rect width="10.5" height="14" fill="white" transform="matrix(1 0 0 -1 0.5 20)"/>
</clipPath>
</defs>
</svg>
