<svg width="15" height="27" viewBox="0 0 15 27" fill="none" xmlns="http://www.w3.org/2000/svg">
<g clip-path="url(#clip0_1_24)">
<path d="M13.0645 10.1426C13.0645 10.2064 13.0645 10.2702 13.0645 10.334C13.0645 10.3978 13.0645 10.4616 13.0645 10.5254C13.0645 11.4733 12.8867 12.4303 12.5312 13.3965C12.1758 14.3626 11.654 15.2376 10.9658 16.0215C10.2777 16.8053 9.42318 17.4479 8.40234 17.9492C7.39062 18.4414 6.22396 18.6875 4.90234 18.6875C4.5013 18.6875 4.10482 18.6602 3.71289 18.6055C3.32096 18.5417 2.94043 18.4551 2.57129 18.3457C2.20215 18.2363 1.8444 18.1042 1.49805 17.9492C1.15169 17.7852 0.81901 17.6029 0.5 17.4023C0.61849 17.4115 0.734701 17.4183 0.848633 17.4229C0.962565 17.4274 1.07878 17.4297 1.19727 17.4297C1.86263 17.4297 2.49837 17.3226 3.10449 17.1084C3.71061 16.8942 4.25977 16.5957 4.75195 16.2129C4.12305 16.1947 3.56478 15.9987 3.07715 15.625C2.58952 15.2513 2.25456 14.7819 2.07227 14.2168C2.16341 14.2259 2.25228 14.235 2.33887 14.2441C2.42546 14.2533 2.51888 14.2578 2.61914 14.2578C2.74674 14.2578 2.87435 14.251 3.00195 14.2373C3.12956 14.2236 3.2526 14.1986 3.37109 14.1621C2.71484 14.0254 2.16797 13.6973 1.73047 13.1777C1.29297 12.6582 1.07422 12.0475 1.07422 11.3457V11.3184C1.26562 11.4186 1.4707 11.5007 1.68945 11.5645C1.9082 11.6283 2.13151 11.6647 2.35938 11.6738C1.97656 11.4186 1.66895 11.0814 1.43652 10.6621C1.2041 10.2428 1.08789 9.78255 1.08789 9.28125C1.08789 9.01693 1.12207 8.764 1.19043 8.52246C1.25879 8.28092 1.35221 8.05534 1.4707 7.8457C1.82617 8.27409 2.22266 8.66602 2.66016 9.02148C3.09766 9.37695 3.56706 9.68457 4.06836 9.94434C4.56966 10.2041 5.10286 10.4115 5.66797 10.5664C6.22396 10.7214 6.79818 10.8125 7.39062 10.8398C7.3724 10.7305 7.35645 10.6211 7.34277 10.5117C7.3291 10.4023 7.32227 10.293 7.32227 10.1836C7.32227 9.79167 7.39518 9.41797 7.54102 9.0625C7.69596 8.71615 7.90332 8.41309 8.16309 8.15332C8.42285 7.89355 8.72591 7.69075 9.07227 7.54492C9.41862 7.38997 9.79232 7.3125 10.1934 7.3125C10.6035 7.3125 10.9886 7.39453 11.3486 7.55859C11.7087 7.72266 12.0208 7.94141 12.2852 8.21484C12.6133 8.16016 12.93 8.07357 13.2354 7.95508C13.5407 7.83659 13.8301 7.69531 14.1035 7.53125C14.0033 7.85938 13.8438 8.16016 13.625 8.43359C13.4062 8.70703 13.1465 8.93034 12.8457 9.10352C13.1374 9.07617 13.4222 9.02376 13.7002 8.94629C13.9782 8.86882 14.2448 8.77539 14.5 8.66602C14.3086 8.94857 14.0898 9.21517 13.8438 9.46582C13.5977 9.71647 13.3379 9.94206 13.0645 10.1426Z" fill="white"/>
</g>
<defs>
<clipPath id="clip0_1_24">
<rect width="14" height="14" fill="white" transform="matrix(1 0 0 -1 0.5 20)"/>
</clipPath>
</defs>
</svg>
